<svg width="12" height="15" viewBox="0 0 12 15" fill="none" xmlns="http://www.w3.org/2000/svg">
<path fill-rule="evenodd" clip-rule="evenodd" d="M1.2 13.243V12H5.90228H10.8V13.243V14.4H5.90228H1.2V13.243ZM0 4.00246L0.817081 3.18577L1.63416 2.4L3.19754 3.93239L4.8 5.4V2.74785V0H5.91792H7.2V2.73222V5.4L8.61892 3.92049C9.46812 3.07132 10.1914 2.4 10.2 2.4C10.2086 2.4 10.5601 2.74243 11.0072 3.18962L11.8202 4.00269L8.87295 6.94984C7.25198 8.57078 5.91869 9.89703 5.91008 9.89703C5.90147 9.89703 4.56818 8.57078 2.94722 6.94977L0 4.00246Z" fill="#005EA2"/>
</svg>
